<mxfile host="Electron" agent="Mozilla/5.0 (Windows NT 10.0; Win64; x64) AppleWebKit/537.36 (KHTML, like Gecko) draw.io/24.7.17 Chrome/128.0.6613.36 Electron/32.0.1 Safari/537.36" version="24.7.17">
  <diagram id="kgpKYQtTHZ0yAKxKKP6v" name="Page-1">
    <mxGraphModel dx="1098" dy="925" grid="1" gridSize="10" guides="1" tooltips="1" connect="1" arrows="1" fold="1" page="1" pageScale="1" pageWidth="850" pageHeight="1100" background="#ffffff" math="0" shadow="0">
      <root>
        <mxCell id="0" />
        <mxCell id="1" parent="0" />
        <mxCell id="3nuBFxr9cyL0pnOWT2aG-5" value=":Bus Simulation" style="shape=umlLifeline;perimeter=lifelinePerimeter;container=1;collapsible=0;recursiveResize=0;rounded=0;shadow=0;strokeWidth=1;" parent="1" vertex="1">
          <mxGeometry x="40" y="40" width="130" height="220" as="geometry" />
        </mxCell>
        <mxCell id="3nuBFxr9cyL0pnOWT2aG-6" value="" style="points=[];perimeter=orthogonalPerimeter;rounded=0;shadow=0;strokeWidth=1;" parent="3nuBFxr9cyL0pnOWT2aG-5" vertex="1">
          <mxGeometry x="60" y="80" width="10" height="130" as="geometry" />
        </mxCell>
        <mxCell id="eGcspzg-jYoVY6njO30K-1" value=":FMU 1" style="shape=umlLifeline;perimeter=lifelinePerimeter;container=1;collapsible=0;recursiveResize=0;rounded=0;shadow=0;strokeWidth=1;" parent="1" vertex="1">
          <mxGeometry x="250" y="40" width="100" height="220" as="geometry" />
        </mxCell>
        <mxCell id="eGcspzg-jYoVY6njO30K-2" value="" style="points=[];perimeter=orthogonalPerimeter;rounded=0;shadow=0;strokeWidth=1;" parent="eGcspzg-jYoVY6njO30K-1" vertex="1">
          <mxGeometry x="45" y="80" width="10" height="130" as="geometry" />
        </mxCell>
        <mxCell id="_HQoY5Zo2aadwidPgHyK-7" value=":FMU 2" style="shape=umlLifeline;perimeter=lifelinePerimeter;container=1;collapsible=0;recursiveResize=0;rounded=0;shadow=0;strokeWidth=1;" parent="1" vertex="1">
          <mxGeometry x="371" y="40" width="100" height="220" as="geometry" />
        </mxCell>
        <mxCell id="_HQoY5Zo2aadwidPgHyK-8" value="" style="points=[];perimeter=orthogonalPerimeter;rounded=0;shadow=0;strokeWidth=1;" parent="_HQoY5Zo2aadwidPgHyK-7" vertex="1">
          <mxGeometry x="45" y="80" width="10" height="130" as="geometry" />
        </mxCell>
        <mxCell id="_HQoY5Zo2aadwidPgHyK-10" value="Wakeup" style="verticalAlign=bottom;endArrow=block;shadow=0;strokeWidth=1;entryX=-0.107;entryY=0.414;entryDx=0;entryDy=0;entryPerimeter=0;" parent="1" edge="1">
          <mxGeometry x="-0.4074" relative="1" as="geometry">
            <mxPoint x="109.5" y="183" as="sourcePoint" />
            <mxPoint x="414.93000000000006" y="182.8" as="targetPoint" />
            <mxPoint as="offset" />
          </mxGeometry>
        </mxCell>
        <mxCell id="_HQoY5Zo2aadwidPgHyK-19" value="Wakeup" style="verticalAlign=bottom;endArrow=block;shadow=0;strokeWidth=1;entryX=1.167;entryY=0.218;entryDx=0;entryDy=0;entryPerimeter=0;spacing=4;" parent="1" edge="1">
          <mxGeometry x="0.0338" y="2" relative="1" as="geometry">
            <mxPoint x="294.5" y="148" as="sourcePoint" />
            <mxPoint x="111.66999999999996" y="148.33999999999997" as="targetPoint" />
            <mxPoint as="offset" />
          </mxGeometry>
        </mxCell>
        <mxCell id="5aP0_pTFM7jYtTM_pikE-1" value=":FMU 3" style="shape=umlLifeline;perimeter=lifelinePerimeter;container=1;collapsible=0;recursiveResize=0;rounded=0;shadow=0;strokeWidth=1;" parent="1" vertex="1">
          <mxGeometry x="491" y="40" width="100" height="220" as="geometry" />
        </mxCell>
        <mxCell id="5aP0_pTFM7jYtTM_pikE-2" value="" style="points=[];perimeter=orthogonalPerimeter;rounded=0;shadow=0;strokeWidth=1;" parent="5aP0_pTFM7jYtTM_pikE-1" vertex="1">
          <mxGeometry x="45" y="80" width="10" height="130" as="geometry" />
        </mxCell>
        <mxCell id="5aP0_pTFM7jYtTM_pikE-3" value="Wakeup" style="verticalAlign=bottom;endArrow=block;shadow=0;strokeWidth=1;entryX=-0.1;entryY=0.739;entryDx=0;entryDy=0;entryPerimeter=0;" parent="1" target="5aP0_pTFM7jYtTM_pikE-2" edge="1">
          <mxGeometry x="-0.5765" relative="1" as="geometry">
            <mxPoint x="110" y="216" as="sourcePoint" />
            <mxPoint x="537.4299999999998" y="215.8" as="targetPoint" />
            <mxPoint as="offset" />
          </mxGeometry>
        </mxCell>
      </root>
    </mxGraphModel>
  </diagram>
</mxfile>
